<svg version="1.1" xmlns="http://www.w3.org/2000/svg" viewBox="-1514.4960469722748 -1015.8080322265625 6001.664268707884 2287.6159912109374"><desc>Created with Snap</desc><defs></defs><g><g transform="matrix(34.8562,0,0,34.8562,2506.7521,-708.4877)"><title>48-Web Development</title><g data-name="48-Web Development"><path d="M23,46H5a3,3,0,0,1-3-3V5A3,3,0,0,1,5,2H42.994A2.854,2.854,0,0,1,46,5a1,1,0,0,0,2,0,4.821,4.821,0,0,0-5-5H5A5.006,5.006,0,0,0,0,5V43a5.006,5.006,0,0,0,5,5H23a1,1,0,0,0,0-2Z" fill="#0560af" style=""></path><path d="M47,8H6a1,1,0,0,0,0,2H46v3a1,1,0,0,0,2,0V9A1,1,0,0,0,47,8Z" fill="#0560af" style=""></path><path d="M6,4A1,1,0,0,0,6,6H8A1,1,0,0,0,8,4Z" fill="#0560af" style=""></path><path d="M12,4a1,1,0,0,0,0,2h2a1,1,0,0,0,0-2Z" fill="#0560af" style=""></path><path d="M42,4H40a1,1,0,0,0,0,2h2a1,1,0,0,0,0-2Z" fill="#0560af" style=""></path><path d="M44,16H30a4,4,0,0,0-4,4V44a4,4,0,0,0,4,4H44a4,4,0,0,0,4-4V26a1,1,0,0,0-2,0V44a2,2,0,0,1-2,2H30a2,2,0,0,1-2-2V20a2,2,0,0,1,2-2H44a2,2,0,0,1,2,2v1H31a1,1,0,0,0,0,2H47a1,1,0,0,0,1-1V20A4,4,0,0,0,44,16Z" fill="#0560af" style=""></path><path d="M31,41a1,1,0,0,0,0,2H43a1,1,0,0,0,0-2Z" fill="#0560af" style=""></path></g><desc>Created with Snap</desc><defs></defs></g><g><g transform="matrix(1.024,0,0,-1.024,0,0)"><path d="M183 0L60 399Q53 424 40 431Q28 439 -2 439L-2 468L194 468L194 439L163 439Q143 439 143 421Q143 415 146 406L232 94L234 94L339 460L392 460L506 94L508 94L589 404Q591 410 591 420Q591 430 585 434Q579 439 566 439L525 439L525 468L698 468L698 439Q662 439 648 429Q635 420 627 389L511 0L456 0L345 340L342 340L237 0L183 0ZM971 -11Q754 -11 754 234Q754 355 808 417Q862 480 972 480Q1189 480 1189 235Q1189 -11 971 -11ZM972 21Q1096 21 1096 230Q1096 448 971 448Q909 448 878 393Q847 339 847 234Q847 21 972 21ZM1548 480Q1584 480 1603 459Q1623 438 1623 401Q1623 371 1609 354Q1595 337 1566 337Q1541 337 1527 350Q1514 363 1514 384Q1514 396 1518 404Q1522 412 1530 421Q1538 430 1538 435Q1538 444 1525 444Q1506 444 1484 425Q1463 406 1447 373Q1431 341 1427 303L1427 83Q1427 57 1431 46Q1436 36 1451 32Q1466 29 1502 29L1502 0L1273 0L1273 29Q1306 29 1320 33Q1334 37 1337 47Q1341 57 1341 83L1341 381Q1341 407 1335 415Q1329 424 1312 424L1278 424L1278 454L1396 474L1424 474L1424 380L1425 380Q1447 422 1475 451Q1503 480 1548 480ZM2138 29L2148 29L2148 0L1954 0L1954 29L1969 29Q1993 29 1993 40Q1993 47 1973 76L1858 231L1820 190L1820 83Q1820 58 1824 47Q1828 37 1842 33Q1856 29 1888 29L1888 0L1666 0L1666 29Q1699 29 1713 33Q1727 37 1731 47Q1735 58 1735 83L1735 599Q1735 625 1729 633Q1723 642 1705 642L1671 642L1671 672L1792 692L1820 692L1820 231L1959 384Q1983 411 1983 425Q1983 439 1964 439L1945 439L1945 468L2127 468L2127 439L2113 439Q2074 439 2044 420Q2014 401 1977 360L1912 289L2046 110Q2082 61 2100 45Q2119 29 2138 29Z" fill="#0560af" style=""></path></g></g><g transform="matrix(1,0,0,1,-1258.496,953.344)"><g transform="matrix(1.024,0,0,-1.024,0,0)"><path d="M227 -11Q199 -11 179 -6Q160 -1 140 7Q117 16 105 16Q95 16 89 11Q84 7 79 -3L60 -3L50 162L70 162Q89 92 128 56Q167 21 221 21Q265 21 291 42Q318 64 318 103Q318 131 303 149Q288 168 267 179Q246 190 205 206L180 215Q119 240 90 267Q62 295 62 343Q62 406 106 442Q151 479 224 479Q248 479 263 476Q278 473 297 467Q317 461 323 461Q333 461 337 465Q341 470 342 474Q344 478 344 479L362 479L369 332L349 332Q322 448 229 448Q188 448 161 428Q135 408 135 376Q135 344 160 322Q186 301 222 288L249 279Q324 253 359 221Q395 189 395 134Q395 69 348 29Q301 -11 227 -11ZM1195 83Q1195 58 1199 47Q1203 36 1217 32Q1231 29 1264 29L1264 0L1045 0L1045 29Q1077 29 1090 32Q1103 36 1107 46Q1111 56 1111 81L1111 324Q1111 373 1091 402Q1071 431 1026 431Q991 431 964 411Q937 392 913 358L913 83Q913 58 917 47Q921 37 934 33Q948 29 979 29L979 0L763 0L763 29Q795 29 808 32Q821 36 825 46Q829 56 829 81L829 324Q829 373 809 402Q789 431 744 431Q681 431 631 361L631 81Q631 56 635 45Q639 35 652 32Q665 29 696 29L696 0L477 0L477 29Q510 29 524 33Q538 37 541 47Q545 57 545 83L545 381Q545 407 539 415Q533 424 516 424L482 424L482 454L600 474L628 474L628 402L629 402Q695 479 787 479Q837 479 868 457Q899 435 909 398Q971 479 1069 479Q1133 479 1164 443Q1195 408 1195 335L1195 83ZM1769 41L1776 16Q1757 4 1737 -3Q1717 -10 1685 -10Q1655 -10 1639 2Q1624 14 1621 54Q1584 22 1549 5Q1514 -11 1471 -11Q1416 -11 1381 14Q1347 40 1347 89Q1347 159 1418 211Q1489 263 1621 284L1621 342Q1621 393 1600 418Q1580 443 1530 443Q1495 443 1467 430Q1439 417 1439 404Q1439 397 1448 389Q1458 382 1463 374Q1469 367 1469 352Q1469 331 1457 318Q1445 306 1423 306Q1400 306 1386 320Q1373 334 1373 359Q1373 390 1393 417Q1414 444 1455 461Q1497 478 1557 478Q1633 478 1669 447Q1705 416 1705 339L1705 102Q1705 63 1713 48Q1722 34 1741 34Q1753 34 1769 41ZM1437 113Q1437 78 1457 60Q1477 43 1515 43Q1543 43 1568 55Q1594 67 1621 87L1621 252Q1528 232 1482 198Q1437 165 1437 113ZM2098 480Q2134 480 2153 459Q2173 438 2173 401Q2173 371 2159 354Q2145 337 2116 337Q2091 337 2077 350Q2064 363 2064 384Q2064 396 2068 404Q2072 412 2080 421Q2088 430 2088 435Q2088 444 2075 444Q2056 444 2034 425Q2013 406 1997 373Q1981 341 1977 303L1977 83Q1977 57 1981 46Q1986 36 2001 32Q2016 29 2052 29L2052 0L1823 0L1823 29Q1856 29 1870 33Q1884 37 1887 47Q1891 57 1891 83L1891 381Q1891 407 1885 415Q1879 424 1862 424L1828 424L1828 454L1946 474L1974 474L1974 380L1975 380Q1997 422 2025 451Q2053 480 2098 480ZM2364 -11Q2323 -11 2294 13Q2266 37 2266 94L2266 436L2193 436L2193 466Q2297 477 2322 620L2351 620L2351 468L2462 468L2462 436L2351 436L2351 109Q2351 68 2363 50Q2376 33 2401 33Q2417 33 2434 40Q2451 48 2463 57L2474 33Q2444 11 2421 0Q2399 -11 2364 -11ZM2945 239L2945 230L2627 230Q2629 137 2660 83Q2692 29 2772 29Q2830 29 2864 59Q2898 89 2914 136L2942 124Q2921 63 2877 26Q2833 -11 2746 -11Q2639 -11 2586 51Q2534 113 2534 229Q2534 348 2588 413Q2642 479 2747 479Q2945 479 2945 239ZM2627 262L2852 262Q2852 357 2829 402Q2806 448 2748 448Q2689 448 2660 401Q2631 355 2627 262ZM3302 480Q3338 480 3357 459Q3377 438 3377 401Q3377 371 3363 354Q3349 337 3320 337Q3295 337 3281 350Q3268 363 3268 384Q3268 396 3272 404Q3276 412 3284 421Q3292 430 3292 435Q3292 444 3279 444Q3260 444 3238 425Q3217 406 3201 373Q3185 341 3181 303L3181 83Q3181 57 3185 46Q3190 36 3205 32Q3220 29 3256 29L3256 0L3027 0L3027 29Q3060 29 3074 33Q3088 37 3091 47Q3095 57 3095 83L3095 381Q3095 407 3089 415Q3083 424 3066 424L3032 424L3032 454L3150 474L3178 474L3178 380L3179 380Q3201 422 3229 451Q3257 480 3302 480Z" fill="#0560af" style=""></path></g></g></g></svg>